<svg width="138" height="138" xmlns="http://www.w3.org/2000/svg" preserveAspectRatio="xMidYMid meet" version="1.0">

 <g>
  <title>Layer 1</title>
  <g id="svg_1" fill="#000000" transform="translate(0, 801) scale(0.1, -0.1)">
   <path id="svg_2" d="m-4901.51649,7136.5271l0,-4005l4005,0l4005,0l0,4005l0,4005l-4005,0l-4005,0l0,-4005zm6005,751c13,-13 26,-22 28,-20c2,3 33,-26 69,-64c69,-73 151,-214 133,-230c-10,-9 -513,-162 -534,-162c-7,0 -6,9 5,25c9,14 20,23 24,20c5,-3 12,0 16,6c4,8 3,9 -4,5c-7,-4 -12,-2 -12,5c0,19 233,439 243,439c4,0 19,-11 32,-24zm-330,-51c32,-9 79,-25 103,-35l44,-20l-43,-77c-135,-244 -218,-398 -215,-400c1,-1 113,31 249,72c135,41 253,75 261,75c19,0 32,-71 29,-173c-6,-293 -244,-533 -533,-538c-137,-2 -232,23 -330,88c-126,83 -202,192 -240,341l-11,42l-225,-2l-226,-3l-69,-113c-38,-62 -69,-115 -69,-117c0,-3 101,-5 225,-5l225,0l0,-100l0,-100l-410,0l-409,0l36,62c20,35 39,65 42,68c3,3 13,19 22,35c9,17 48,83 87,147c40,65 72,120 72,123c0,3 -83,5 -185,5l-185,0l-2,-217l-3,-218l-103,-2l-102,-2l0,210c1,140 5,209 12,209c7,0 7,4 1,13c-6,6 -9,60 -9,119c1,60 -2,108 -6,108c-5,0 -8,10 -8,23c0,34 -78,131 -125,156c-59,31 -140,38 -204,16c-76,-25 -169,-131 -171,-192c0,-13 -3,-23 -8,-23c-4,0 -5,-21 -3,-47c3,-43 2,-46 -13,-34c-9,7 -16,9 -16,3c0,-5 7,-12 15,-15c12,-5 14,-50 15,-277l0,-270l-100,0l-100,0l0,223l0,222l-346,-2l-346,-3l-29,29c-16,16 -29,37 -29,45c0,19 11,21 29,4c7,-7 4,2 -6,20c-18,33 -18,33 7,52c21,17 40,20 115,19c50,0 130,0 179,0l89,1l-7,31c-3,16 -13,37 -21,45c-8,9 -15,19 -15,23c0,19 -100,104 -150,129c-56,28 -190,47 -190,28c0,-5 -3,-7 -6,-3c-3,3 -24,-1 -46,-9c-22,-7 -45,-11 -51,-7c-6,3 -7,1 -3,-5c4,-7 3,-12 -2,-12c-6,0 -33,-21 -61,-46c-73,-66 -116,-144 -125,-229c-2,-16 -5,-34 -7,-40c-1,-5 0,-17 3,-25c3,-8 11,-35 18,-60c26,-102 137,-215 235,-239c59,-15 151,-16 187,-2c18,7 29,6 38,-2c8,-7 11,-8 7,-1c-4,6 17,26 46,45c29,18 58,40 66,47c13,12 17,12 28,-4c7,-10 11,-24 8,-32c-2,-7 -1,-11 4,-8c4,3 24,-23 44,-57l37,-62l-22,-18c-76,-59 -284,-135 -264,-96c4,8 1,6 -7,-3c-10,-13 -29,-18 -65,-18c-45,0 -51,2 -45,18c5,15 4,15 -9,-2c-13,-16 -20,-17 -70,-7c-156,33 -309,154 -384,306c-28,56 -35,80 -26,83c10,3 9,7 -4,16c-26,19 -34,205 -10,229c10,9 13,17 8,17c-13,0 -3,40 14,61c8,9 11,18 8,21c-11,12 47,108 101,166c111,120 237,175 400,176c171,0 301,-56 412,-177c62,-68 120,-180 129,-248c5,-36 11,-49 23,-49c14,0 14,2 1,10c-11,7 -1,9 35,9c28,-1 55,-1 62,0c6,1 15,25 19,54c8,56 8,55 16,77c3,8 13,36 23,63c20,55 106,153 174,196c129,82 335,88 463,13c61,-35 138,-101 138,-117c0,-7 6,-15 13,-18c16,-6 64,-94 71,-131c3,-16 8,-31 10,-34c3,-3 0,-12 -7,-20c-7,-10 -8,-13 -1,-9c7,4 14,-7 18,-33l6,-39l128,-3c70,-2 178,-1 241,2l115,5l68,113c37,62 68,115 68,117c0,3 -90,5 -200,5l-200,0l0,98l0,99l375,1c236,0 377,-3 381,-9c7,-12 -105,-199 -119,-199c-6,0 -8,-3 -4,-6c3,-3 -18,-45 -47,-93c-29,-47 -59,-96 -65,-108l-12,-23l170,0l170,0l16,57c29,100 74,174 149,248c39,39 94,83 123,98c114,61 280,82 398,52zm-2205,-772c17,-21 36,-55 42,-75c10,-33 13,-35 23,-21c10,14 13,12 23,-17c17,-48 15,-109 -3,-116c-8,-4 -13,-10 -10,-15c5,-7 -44,-39 -59,-39c-3,0 1,15 9,32c15,37 5,67 -34,102c-12,11 -21,27 -21,38c0,28 -16,22 -39,-16c-27,-43 -27,-96 0,-130c18,-22 18,-26 4,-26c-9,0 -30,13 -46,29c-24,25 -29,38 -29,78c0,42 6,54 40,93c22,25 40,49 40,53c0,5 4,6 8,3c4,-2 6,11 4,30c-5,44 9,43 48,-3zm-371,-477c13,-16 10,-51 -6,-67c-7,-7 -22,-13 -35,-14c-13,-1 -26,-3 -30,-4c-5,0 -8,-15 -8,-32c0,-20 -4,-29 -12,-26c-12,3 -14,40 -9,145c1,17 85,16 100,-2zm375,-60c-2,-87 -2,-86 -14,-86c-6,0 -10,33 -10,78c0,58 3,79 13,79c9,0 12,-19 11,-71zm446,62c0,-7 -14,-33 -30,-58c-38,-57 -38,-71 0,-68c16,2 31,-1 32,-7c2,-5 -21,-11 -49,-13c-31,-2 -53,1 -53,7c0,5 16,36 35,68l35,58l-35,3c-53,5 -42,22 15,22c33,0 50,-4 50,-12zm440,7c0,-15 -42,-85 -50,-85c-6,0 -10,-9 -10,-20c0,-16 7,-20 30,-20c20,0 30,-5 30,-15c0,-11 -12,-15 -44,-15c-54,0 -64,12 -40,48c10,15 27,42 36,60l18,32l-36,0c-21,0 -33,4 -29,10c6,10 95,14 95,5zm443,-74c28,-74 28,-106 0,-63c-10,14 -26,22 -43,22c-17,0 -33,-8 -43,-22c-24,-37 -28,-16 -8,38c11,27 24,62 30,77c6,16 17,27 24,25c6,-3 25,-37 40,-77z"/>
   <path id="svg_3" d="m-1763.51649,7549.5271c5,-5 16,-8 23,-6c8,3 3,7 -10,11c-17,4 -21,3 -13,-5z"/>
   <path id="svg_4" d="m-1884.51649,7471.5271c-3,-11 -2,-22 2,-24c4,-3 8,6 9,20c2,29 -4,31 -11,4z"/>
   <path id="svg_5" d="m-2176.51649,7471.5271c-3,-5 -1,-10 4,-10c6,0 11,5 11,10c0,6 -2,10 -4,10c-3,0 -8,-4 -11,-10z"/>
   <path id="svg_6" d="m-1835.51649,7438.5271c3,-10 9,-15 12,-12c3,3 0,11 -7,18c-10,9 -11,8 -5,-6z"/>
   <path id="svg_7" d="m-1765.51649,7418.5271c3,-10 9,-15 12,-12c3,3 0,11 -7,18c-10,9 -11,8 -5,-6z"/>
   <path id="svg_8" d="m-2143.51649,7354.5271c7,-3 16,-2 19,1c4,3 -2,6 -13,5c-11,0 -14,-3 -6,-6z"/>
   <path id="svg_9" d="m-1144.51649,7355.5271c-8,-8 1,-24 14,-24c5,0 9,7 9,15c0,15 -12,20 -23,9z"/>
   <path id="svg_10" d="m188.48351,7351.5271c0,-5 5,-10 11,-10c5,0 7,5 4,10c-3,6 -8,10 -11,10c-2,0 -4,-4 -4,-10z"/>
   <path id="svg_11" d="m-2591.51649,7312.5271c-8,-17 -7,-24 10,-41c11,-11 24,-20 29,-20c16,0 33,29 29,52c-4,32 -52,38 -68,9z"/>
   <path id="svg_12" d="m-1143.51649,7310.5271c13,-5 30,-5 38,-1c9,5 1,8 -23,9c-33,1 -35,0 -15,-8z"/>
   <path id="svg_13" d="m-1811.51649,7293.5271c0,-12 19,-26 26,-19c2,2 -2,10 -11,17c-9,8 -15,8 -15,2z"/>
   <path id="svg_14" d="m-1151.51649,7297.5271c0,-2 8,-10 18,-17c15,-13 16,-12 3,4c-13,16 -21,21 -21,13z"/>
   <path id="svg_15" d="m-2261.51649,7287.5271c0,-2 7,-9 15,-16c13,-11 14,-10 9,4c-5,14 -24,23 -24,12z"/>
   <path id="svg_16" d="m-2498.51649,7236.5271c0,-8 4,-12 9,-9c5,3 6,10 3,15c-9,13 -12,11 -12,-6z"/>
   <path id="svg_17" d="m-1123.51649,7194.5271c7,-3 16,-2 19,1c4,3 -2,6 -13,5c-11,0 -14,-3 -6,-6z"/>
   <path id="svg_18" d="m858.48351,7041.5271c0,-5 5,-10 11,-10c5,0 7,5 4,10c-3,6 -8,10 -11,10c-2,0 -4,-4 -4,-10z"/>
   <path id="svg_19" d="m-1823.51649,7024.5271c7,-3 16,-2 19,1c4,3 -2,6 -13,5c-11,0 -14,-3 -6,-6z"/>
   <path id="svg_20" d="m-2483.51649,6874.5271c7,-3 16,-2 19,1c4,3 -2,6 -13,5c-11,0 -14,-3 -6,-6z"/>
   <path id="svg_21" d="m-2591.51649,6771.5271c-12,-8 -10,-10 8,-10c13,0 20,4 17,10c-7,12 -6,12 -25,0z"/>
   <path id="svg_22" d="m-1881.51649,6556.5271c0,-21 5,-25 29,-25c33,0 44,11 35,34c-4,10 -18,16 -35,16c-24,0 -29,-4 -29,-25z"/>
   <path id="svg_23" d="m-149.51649,6544.5271c-17,-31 -15,-43 8,-43c21,0 24,12 11,45c-8,19 -8,19 -19,-2z"/>
  </g>
 </g>
</svg>